<svg width="13" height="13" viewBox="0 0 13 13" fill="none" xmlns="http://www.w3.org/2000/svg">
<g clip-path="url(#clip0_765_318)">
<path d="M12.9886 3.77417C12.9585 3.09208 12.8482 2.62315 12.6902 2.21681C12.5272 1.7855 12.2764 1.39935 11.9479 1.07833C11.6269 0.752326 11.2382 0.499003 10.8118 0.338547C10.4032 0.180539 9.93668 0.0702366 9.25459 0.0401632C8.56741 0.00754284 8.34925 0 6.60637 0C4.86348 0 4.64532 0.00754284 3.96069 0.0376163C3.2786 0.0676897 2.80967 0.17809 2.40343 0.336C1.97202 0.499004 1.58587 0.749779 1.26486 1.07833C0.938849 1.39935 0.685625 1.78805 0.52507 2.21436C0.367062 2.62315 0.25676 3.08953 0.226687 3.77162C0.194066 4.4588 0.186523 4.67696 0.186523 6.41985C0.186523 8.16273 0.194066 8.38089 0.22414 9.06552C0.254213 9.74761 0.364613 10.2165 0.522621 10.6229C0.685625 11.0542 0.938849 11.4403 1.26486 11.7614C1.58587 12.0874 1.97457 12.3407 2.40089 12.5011C2.80967 12.6592 3.27605 12.7695 3.95824 12.7995C4.64278 12.8297 4.86103 12.8371 6.60392 12.8371C8.3468 12.8371 8.56496 12.8297 9.24959 12.7995C9.93168 12.7695 10.4006 12.6592 10.8068 12.5011C11.6696 12.1676 12.3517 11.4855 12.6852 10.6229C12.8431 10.2141 12.9535 9.74761 12.9836 9.06552C13.0137 8.38089 13.0212 8.16273 13.0212 6.41985C13.0212 4.67696 13.0187 4.4588 12.9886 3.77417ZM11.8326 9.01537C11.805 9.64231 11.6996 9.98085 11.6119 10.2066C11.3962 10.7658 10.9523 11.2097 10.3931 11.4254C10.1674 11.5131 9.82638 11.6184 9.20189 11.646C8.5248 11.6761 8.32173 11.6836 6.60891 11.6836C4.8961 11.6836 4.69048 11.6761 4.01584 11.646C3.3889 11.6184 3.05036 11.5131 2.82466 11.4254C2.54636 11.3225 2.29303 11.1595 2.08742 10.9463C1.87426 10.7382 1.71126 10.4874 1.6084 10.2091C1.52063 9.9834 1.41532 9.64231 1.38779 9.01792C1.35762 8.34082 1.35018 8.13766 1.35018 6.42484C1.35018 4.71203 1.35762 4.50641 1.38779 3.83186C1.41532 3.20493 1.52063 2.86638 1.6084 2.64068C1.71126 2.36228 1.87426 2.10906 2.08997 1.90334C2.29803 1.69019 2.54881 1.52718 2.8272 1.42442C3.0529 1.33665 3.394 1.23135 4.01839 1.20372C4.69548 1.17365 4.89865 1.1661 6.61136 1.1661C8.32672 1.1661 8.52979 1.17365 9.20444 1.20372C9.83137 1.23135 10.1699 1.33665 10.3956 1.42442C10.6739 1.52718 10.9272 1.69019 11.1329 1.90334C11.346 2.11151 11.509 2.36228 11.6119 2.64068C11.6996 2.86638 11.805 3.20738 11.8326 3.83186C11.8627 4.50896 11.8702 4.71203 11.8702 6.42484C11.8702 8.13766 11.8627 8.33828 11.8326 9.01537Z" fill="#402F2C"/>
<path d="M6.60531 3.12207C4.78474 3.12207 3.30762 4.5991 3.30762 6.41976C3.30762 8.24043 4.78474 9.71746 6.60531 9.71746C8.42598 9.71746 9.903 8.24043 9.903 6.41976C9.903 4.5991 8.42598 3.12207 6.60531 3.12207ZM6.60531 8.5589C5.42422 8.5589 4.46618 7.60095 4.46618 6.41976C4.46618 5.23857 5.42422 4.28063 6.60531 4.28063C7.7865 4.28063 8.74444 5.23857 8.74444 6.41976C8.74444 7.60095 7.7865 8.5589 6.60531 8.5589Z" fill="#402F2C"/>
<path d="M10.8035 2.99178C10.8035 3.41693 10.4588 3.76165 10.0335 3.76165C9.60839 3.76165 9.26367 3.41693 9.26367 2.99178C9.26367 2.56654 9.60839 2.22192 10.0335 2.22192C10.4588 2.22192 10.8035 2.56654 10.8035 2.99178Z" fill="#402F2C"/>
</g>
<defs>
<clipPath id="clip0_765_318">
<rect width="12.8372" height="12.8372" fill="white" transform="translate(0.163086)"/>
</clipPath>
</defs>
</svg>
