<svg width="20" height="20" viewBox="0 0 433 381" fill="none" xmlns="http://www.w3.org/2000/svg">
<path d="M195.477 26.9297C202.223 32.6313 208.3 39.1259 214.419 45.4846C215.943 47.0946 215.943 47.0946 218 48C218.245 47.429 218.49 46.8579 218.742 46.2696C221.225 41.7903 225.316 38.4988 229 35C229.62 34.4096 230.24 33.8192 230.879 33.211C252.526 13.4804 280.06 1.36787 309.483 1.60891C311.8 1.62493 314.115 1.60901 316.432 1.58987C330.325 1.56765 343.441 3.28885 356.312 8.81252C357.16 9.16581 358.008 9.51909 358.881 9.88308C374.296 16.412 386.821 25.545 399 37C399.614 37.5492 400.227 38.0983 400.859 38.6641C414.959 51.7937 424.547 71.5335 429 90C429.34 90.9114 429.681 91.8228 430.031 92.7617C432.646 101.501 432.245 110.925 432.295 119.975C432.307 121.398 432.327 122.82 432.357 124.243C432.749 143.164 427.454 160.747 418.812 177.563C418.487 178.21 418.161 178.858 417.825 179.525C410.082 194.037 398.059 205.379 386.544 216.86C384.79 218.62 383.036 220.38 381.283 222.142C377.042 226.399 372.794 230.649 368.543 234.895C365.087 238.347 361.634 241.801 358.183 245.257C357.69 245.751 357.196 246.246 356.688 246.755C355.685 247.759 354.683 248.763 353.68 249.767C344.312 259.149 334.934 268.521 325.554 277.891C316.978 286.456 308.414 295.033 299.856 303.616C291.048 312.448 282.232 321.273 273.409 330.09C268.463 335.032 263.52 339.977 258.585 344.93C253.951 349.58 249.306 354.22 244.655 358.853C242.95 360.554 241.248 362.259 239.55 363.967C237.233 366.298 234.903 368.616 232.57 370.931C231.901 371.61 231.231 372.289 230.542 372.988C226.6 376.869 223.363 379.459 218 381C212.271 380.954 209.646 379.411 205.602 375.467C205.097 374.982 204.593 374.497 204.073 373.997C202.366 372.347 200.683 370.675 199 369C197.756 367.78 196.511 366.561 195.265 365.342C190.944 361.098 186.659 356.817 182.375 352.536C180.734 350.9 179.093 349.264 177.452 347.629C173.029 343.218 168.608 338.804 164.189 334.389C161.421 331.624 158.653 328.86 155.884 326.096C148.194 318.418 140.505 310.739 132.819 303.057C132.329 302.567 131.84 302.078 131.335 301.574C130.845 301.083 130.354 300.593 129.849 300.087C128.855 299.094 127.861 298.1 126.867 297.107C126.374 296.614 125.881 296.121 125.373 295.614C117.38 287.625 109.381 279.643 101.379 271.664C93.1302 263.44 84.8876 255.209 76.6504 246.973C72.0383 242.362 67.4239 237.754 62.8034 233.151C58.458 228.822 54.1198 224.486 49.787 220.145C48.2038 218.561 46.6181 216.979 45.0296 215.401C18.2292 188.758 0.989615 158.932 0.6875 120.25C0.828291 86.6796 13.1929 58.456 36.3125 34.25C79.3719 -7.45998 148.775 -10.7269 195.477 26.9297Z" fill="#FF0000"/>
</svg>
