<svg width="20" height="20" viewBox="0 0 20 20" fill="none" xmlns="http://www.w3.org/2000/svg">
<g clip-path="url(#clip0_765_444)">
<path d="M18.3846 2.84083C17.3373 1.79355 15.9508 1.22116 14.4711 1.22116C12.9913 1.22116 11.6006 1.79779 10.5533 2.84506L10.0064 3.39202L9.45093 2.83659C8.40365 1.78931 7.0087 1.20844 5.52895 1.20844C4.05344 1.20844 2.66273 1.78507 1.61969 2.82811C0.57242 3.87538 -0.00421676 5.26609 2.32169e-05 6.74584C2.32169e-05 8.22559 0.5809 9.61206 1.62817 10.6593L9.59085 18.622C9.70108 18.7322 9.84948 18.7916 9.99364 18.7916C10.1378 18.7916 10.2862 18.7365 10.3964 18.6262L18.3761 10.6763C19.4233 9.62902 20 8.23831 20 6.75856C20.0042 5.27881 19.4318 3.8881 18.3846 2.84083ZM17.5705 9.86646L9.99364 17.4136L2.43377 9.85374C1.60273 9.02271 1.14482 7.92031 1.14482 6.74584C1.14482 5.57137 1.59849 4.46898 2.42953 3.64218C3.25632 2.81539 4.35872 2.35747 5.52895 2.35747C6.70342 2.35747 7.81006 2.81539 8.64109 3.64642L9.59932 4.60465C9.82404 4.82937 10.1844 4.82937 10.4092 4.60465L11.3589 3.6549C12.1899 2.82387 13.2966 2.36595 14.4668 2.36595C15.637 2.36595 16.7394 2.82387 17.5705 3.65066C18.4015 4.4817 18.8552 5.58409 18.8552 6.75856C18.8594 7.93303 18.4015 9.03543 17.5705 9.86646Z" fill="#1E060E"/>
</g>
<defs>
<clipPath id="clip0_765_444">
<rect width="20" height="20" fill="white"/>
</clipPath>
</defs>
</svg>
