<svg width="239" height="85" viewBox="0 0 239 85" fill="none" xmlns="http://www.w3.org/2000/svg">
<path d="M79.5828 66.0097V77.6178H81.2489V82.5247H79.6743V79.0825H70.6845V82.5247H69.1099V77.6178H70.1169C70.5563 76.861 70.9713 76.0127 71.3619 75.0728C71.7647 74.1329 72.1187 73.1503 72.4238 72.125C72.729 71.0875 72.9792 70.0499 73.1745 69.0124C73.3698 67.9749 73.4919 66.974 73.5407 66.0097H79.5828ZM74.9871 67.4927C74.9383 68.2007 74.8162 69.0002 74.6209 69.8913C74.4379 70.7823 74.1998 71.6978 73.9069 72.6377C73.6261 73.5653 73.3088 74.4625 72.9548 75.3291C72.613 76.1958 72.2468 76.9586 71.8562 77.6178H77.9532V67.4927H74.9871ZM91.7476 74.1573C91.7476 74.9751 91.6377 75.7014 91.418 76.3361C91.2105 76.9586 90.9053 77.4896 90.5025 77.929C90.1119 78.3685 89.6298 78.7041 89.0561 78.936C88.4946 79.1558 87.866 79.2656 87.1702 79.2656C86.5233 79.2656 85.9252 79.1558 85.3759 78.936C84.8267 78.7041 84.3506 78.3685 83.9478 77.929C83.545 77.4896 83.2276 76.9586 82.9957 76.3361C82.776 75.7014 82.6662 74.9751 82.6662 74.1573C82.6662 73.071 82.8493 72.1555 83.2154 71.4109C83.5816 70.6541 84.1065 70.0805 84.79 69.6899C85.4736 69.2871 86.2853 69.0857 87.2252 69.0857C88.1162 69.0857 88.8974 69.2871 89.5688 69.6899C90.2523 70.0805 90.7833 70.6541 91.1617 71.4109C91.5523 72.1555 91.7476 73.071 91.7476 74.1573ZM84.3323 74.1573C84.3323 74.9263 84.43 75.5977 84.6253 76.1713C84.8328 76.7328 85.1501 77.1661 85.5773 77.4713C86.0046 77.7765 86.5477 77.929 87.2069 77.929C87.866 77.929 88.4092 77.7765 88.8364 77.4713C89.2636 77.1661 89.5749 76.7328 89.7702 76.1713C89.9777 75.5977 90.0814 74.9263 90.0814 74.1573C90.0814 73.3761 89.9777 72.7109 89.7702 72.1616C89.5627 71.6123 89.2453 71.1912 88.8181 70.8983C88.4031 70.5931 87.8599 70.4405 87.1886 70.4405C86.1876 70.4405 85.4614 70.7701 85.0097 71.4292C84.5581 72.0884 84.3323 72.9977 84.3323 74.1573ZM101.771 79.0825H100.142V70.6053H97.2489C97.1269 72.1555 96.9743 73.4799 96.7912 74.5784C96.6081 75.6648 96.3762 76.5497 96.0954 77.2333C95.8147 77.9168 95.479 78.4173 95.0884 78.7346C94.6978 79.052 94.2401 79.2107 93.7152 79.2107C93.5566 79.2107 93.3979 79.1985 93.2392 79.1741C93.0927 79.1619 92.9707 79.1313 92.873 79.0825V77.8741C92.9462 77.8985 93.0256 77.9168 93.111 77.929C93.1965 77.9412 93.2819 77.9473 93.3674 77.9473C93.6359 77.9473 93.88 77.8375 94.0997 77.6178C94.3194 77.3981 94.5147 77.0624 94.6856 76.6108C94.8687 76.1591 95.0335 75.5916 95.18 74.908C95.3265 74.2123 95.4546 73.3944 95.5645 72.4546C95.6743 71.5147 95.772 70.4527 95.8574 69.2687H101.771V79.0825ZM116.659 69.2687L112.613 74.0292L117.007 79.0825H115.176L110.928 74.1024V79.0825H109.427V74.1024L105.179 79.0825H103.348L107.742 74.0292L103.696 69.2687H105.454L109.427 74.0292V69.2687H110.928V74.0292L114.92 69.2687H116.659ZM120.229 69.2687V73.3517H125.557V69.2687H127.169V79.0825H125.557V74.7066H120.229V79.0825H118.618V69.2687H120.229ZM138.808 74.1573C138.808 74.9751 138.698 75.7014 138.479 76.3361C138.271 76.9586 137.966 77.4896 137.563 77.929C137.172 78.3685 136.69 78.7041 136.117 78.936C135.555 79.1558 134.927 79.2656 134.231 79.2656C133.584 79.2656 132.986 79.1558 132.436 78.936C131.887 78.7041 131.411 78.3685 131.008 77.929C130.606 77.4896 130.288 76.9586 130.056 76.3361C129.837 75.7014 129.727 74.9751 129.727 74.1573C129.727 73.071 129.91 72.1555 130.276 71.4109C130.642 70.6541 131.167 70.0805 131.851 69.6899C132.534 69.2871 133.346 69.0857 134.286 69.0857C135.177 69.0857 135.958 69.2871 136.629 69.6899C137.313 70.0805 137.844 70.6541 138.222 71.4109C138.613 72.1555 138.808 73.071 138.808 74.1573ZM131.393 74.1573C131.393 74.9263 131.491 75.5977 131.686 76.1713C131.893 76.7328 132.211 77.1661 132.638 77.4713C133.065 77.7765 133.608 77.929 134.267 77.929C134.927 77.929 135.47 77.7765 135.897 77.4713C136.324 77.1661 136.635 76.7328 136.831 76.1713C137.038 75.5977 137.142 74.9263 137.142 74.1573C137.142 73.3761 137.038 72.7109 136.831 72.1616C136.623 71.6123 136.306 71.1912 135.879 70.8983C135.464 70.5931 134.92 70.4405 134.249 70.4405C133.248 70.4405 132.522 70.7701 132.07 71.4292C131.619 72.0884 131.393 72.9977 131.393 74.1573ZM145.298 79.2656C144.432 79.2656 143.656 79.0886 142.973 78.7346C142.302 78.3807 141.771 77.8314 141.38 77.0868C141.002 76.3422 140.812 75.3901 140.812 74.2306C140.812 73.0221 141.014 72.0395 141.417 71.2828C141.819 70.526 142.363 69.9706 143.046 69.6166C143.742 69.2626 144.529 69.0857 145.408 69.0857C145.909 69.0857 146.391 69.1406 146.854 69.2504C147.318 69.3481 147.697 69.4701 147.99 69.6166L147.495 70.9532C147.202 70.8433 146.861 70.7396 146.47 70.6419C146.079 70.5443 145.713 70.4955 145.371 70.4955C144.712 70.4955 144.169 70.6358 143.742 70.9166C143.315 71.1973 142.997 71.6123 142.79 72.1616C142.582 72.7109 142.479 73.3944 142.479 74.2123C142.479 74.9934 142.582 75.6587 142.79 76.208C142.997 76.7572 143.309 77.1723 143.724 77.453C144.139 77.7337 144.657 77.8741 145.28 77.8741C145.817 77.8741 146.287 77.8192 146.69 77.7093C147.105 77.5995 147.483 77.4652 147.825 77.3065V78.7346C147.495 78.9055 147.129 79.0337 146.726 79.1191C146.336 79.2168 145.86 79.2656 145.298 79.2656ZM156.933 70.6236H153.729V79.0825H152.136V70.6236H148.969V69.2687H156.933V70.6236ZM163.389 73.2968C164.243 73.2968 164.951 73.4005 165.513 73.608C166.074 73.8156 166.495 74.1268 166.776 74.5418C167.069 74.9446 167.215 75.4573 167.215 76.0798C167.215 76.6901 167.075 77.2211 166.794 77.6727C166.526 78.1243 166.105 78.4722 165.531 78.7163C164.957 78.9605 164.219 79.0825 163.316 79.0825H158.866V69.2687H160.478V73.2968H163.389ZM165.604 76.1713C165.604 75.5732 165.391 75.1704 164.963 74.9629C164.548 74.7432 163.962 74.6334 163.206 74.6334H160.478V77.7826H163.242C163.926 77.7826 164.487 77.6605 164.927 77.4164C165.378 77.1723 165.604 76.7572 165.604 76.1713Z" fill="#555555"/>
<path d="M2.88 15.152H7.232V26.192C7.232 26.7253 7.22133 27.3227 7.2 27.984C7.17867 28.6453 7.15733 29.296 7.136 29.936C7.11467 30.5547 7.09333 31.0987 7.072 31.568C7.05067 32.016 7.02933 32.3253 7.008 32.496H7.104L17.664 15.152H23.456V38H19.136V27.024C19.136 26.448 19.1467 25.8187 19.168 25.136C19.1893 24.432 19.2107 23.76 19.232 23.12C19.2747 22.48 19.3067 21.9253 19.328 21.456C19.3707 20.9653 19.4027 20.6453 19.424 20.496H19.296L8.704 38H2.88V15.152ZM50.8558 20.528V38H46.4078V29.424C46.4078 28.5707 46.4184 27.7387 46.4398 26.928C46.4824 26.1173 46.5358 25.3707 46.5998 24.688H46.5038L41.6718 38H38.0878L33.1918 24.656H33.0638C33.1491 25.36 33.2024 26.1173 33.2238 26.928C33.2664 27.7173 33.2878 28.592 33.2878 29.552V38H28.8398V20.528H35.5918L39.9438 32.368L44.3598 20.528H50.8558ZM58.4958 38H53.3438L58.0477 31.088C57.4504 30.832 56.8851 30.4907 56.3518 30.064C55.8398 29.616 55.4238 29.0507 55.1038 28.368C54.7838 27.6853 54.6238 26.8747 54.6238 25.936C54.6238 24.1867 55.2851 22.8533 56.6078 21.936C57.9304 20.9973 59.6264 20.528 61.6958 20.528H69.8238V38H65.0558V31.504H62.4318L58.4958 38ZM59.2958 25.968C59.2958 26.6933 59.5838 27.2693 60.1598 27.696C60.7358 28.1013 61.4824 28.304 62.3998 28.304H65.0558V23.888H61.7917C60.9384 23.888 60.3091 24.1013 59.9038 24.528C59.4984 24.9333 59.2958 25.4133 59.2958 25.968ZM94.686 14.832V17.648C97.182 17.712 99.166 18.1493 100.638 18.96C102.131 19.7493 103.198 20.7733 103.838 22.032C104.499 23.2907 104.83 24.6667 104.83 26.16C104.83 27.12 104.659 28.1013 104.318 29.104C103.998 30.1067 103.443 31.0347 102.654 31.888C101.886 32.72 100.851 33.4027 99.55 33.936C98.2487 34.4693 96.6273 34.7573 94.686 34.8V38.32H90.334V34.8C88.3713 34.7573 86.7287 34.4693 85.406 33.936C84.1047 33.4027 83.07 32.7093 82.302 31.856C81.534 31.0027 80.99 30.0853 80.67 29.104C80.35 28.1013 80.19 27.12 80.19 26.16C80.19 25.0507 80.3713 23.9947 80.734 22.992C81.0967 21.9893 81.6727 21.0933 82.462 20.304C83.2513 19.5147 84.2967 18.8853 85.598 18.416C86.8993 17.9467 88.478 17.6907 90.334 17.648V14.832H94.686ZM90.334 21.424C88.9473 21.488 87.838 21.7333 87.006 22.16C86.1953 22.5653 85.6087 23.1093 85.246 23.792C84.9047 24.4747 84.734 25.2533 84.734 26.128C84.734 27.088 84.926 27.9307 85.31 28.656C85.7153 29.36 86.3233 29.9253 87.134 30.352C87.966 30.7573 89.0327 30.992 90.334 31.056V21.424ZM94.686 31.056C95.9873 30.992 97.0433 30.7573 97.854 30.352C98.686 29.9253 99.294 29.36 99.678 28.656C100.083 27.9307 100.286 27.088 100.286 26.128C100.286 25.2533 100.105 24.4747 99.742 23.792C99.4007 23.1093 98.814 22.5653 97.982 22.16C97.1713 21.7333 96.0727 21.488 94.686 21.424V31.056ZM115.945 20.176C118.292 20.176 120.084 20.688 121.321 21.712C122.58 22.7147 123.209 24.2613 123.209 26.352V38H119.881L118.953 35.632H118.825C118.335 36.2507 117.823 36.7627 117.289 37.168C116.777 37.5733 116.18 37.8613 115.497 38.032C114.836 38.224 114.015 38.32 113.033 38.32C112.009 38.32 111.081 38.128 110.249 37.744C109.439 37.3387 108.799 36.7307 108.329 35.92C107.86 35.088 107.625 34.0427 107.625 32.784C107.625 30.928 108.276 29.5627 109.577 28.688C110.879 27.792 112.831 27.3013 115.433 27.216L118.473 27.12V26.352C118.473 25.4347 118.228 24.7627 117.737 24.336C117.268 23.9093 116.607 23.696 115.753 23.696C114.9 23.696 114.068 23.824 113.257 24.08C112.447 24.3147 111.636 24.6133 110.825 24.976L109.257 21.744C110.196 21.2533 111.231 20.8693 112.361 20.592C113.513 20.3147 114.708 20.176 115.945 20.176ZM116.617 29.968C115.081 30.0107 114.015 30.288 113.417 30.8C112.82 31.312 112.521 31.984 112.521 32.816C112.521 33.5413 112.735 34.064 113.161 34.384C113.588 34.6827 114.143 34.832 114.825 34.832C115.849 34.832 116.713 34.5333 117.417 33.936C118.121 33.3173 118.473 32.4533 118.473 31.344V29.904L116.617 29.968ZM150.106 20.528V38H145.658V29.424C145.658 28.5707 145.668 27.7387 145.69 26.928C145.732 26.1173 145.786 25.3707 145.85 24.688H145.754L140.922 38H137.338L132.442 24.656H132.314C132.399 25.36 132.452 26.1173 132.474 26.928C132.516 27.7173 132.538 28.592 132.538 29.552V38H128.09V20.528H134.842L139.194 32.368L143.61 20.528H150.106ZM159.698 27.44C159.698 27.8027 159.676 28.2507 159.634 28.784C159.612 29.3173 159.58 29.8613 159.538 30.416C159.516 30.9707 159.484 31.4613 159.442 31.888C159.399 32.3147 159.367 32.6133 159.346 32.784L167.41 20.528H173.138V38H168.53V31.024C168.53 30.448 168.551 29.8187 168.594 29.136C168.636 28.432 168.679 27.7813 168.722 27.184C168.786 26.5653 168.828 26.096 168.85 25.776L160.818 38H155.09V20.528H159.698V27.44ZM193.769 38H189.001V24.112H184.617C184.404 26.672 184.137 28.8587 183.817 30.672C183.518 32.464 183.134 33.9253 182.665 35.056C182.217 36.1867 181.641 37.0187 180.937 37.552C180.233 38.064 179.369 38.32 178.345 38.32C177.79 38.32 177.289 38.2773 176.841 38.192C176.393 38.1067 175.988 37.9787 175.625 37.808V34C175.86 34.0853 176.105 34.16 176.361 34.224C176.617 34.288 176.884 34.32 177.161 34.32C177.46 34.32 177.737 34.2027 177.993 33.968C178.27 33.7333 178.526 33.3173 178.761 32.72C179.017 32.1227 179.252 31.3013 179.465 30.256C179.678 29.2107 179.87 27.8987 180.041 26.32C180.233 24.72 180.404 22.7893 180.553 20.528H193.769V38ZM203.354 27.44C203.354 27.8027 203.333 28.2507 203.29 28.784C203.269 29.3173 203.237 29.8613 203.194 30.416C203.173 30.9707 203.141 31.4613 203.098 31.888C203.055 32.3147 203.023 32.6133 203.002 32.784L211.066 20.528H216.794V38H212.186V31.024C212.186 30.448 212.207 29.8187 212.25 29.136C212.293 28.432 212.335 27.7813 212.378 27.184C212.442 26.5653 212.485 26.096 212.506 25.776L204.474 38H198.746V20.528H203.354V27.44ZM224.433 38H219.281L223.985 31.088C223.388 30.832 222.823 30.4907 222.289 30.064C221.777 29.616 221.361 29.0507 221.041 28.368C220.721 27.6853 220.561 26.8747 220.561 25.936C220.561 24.1867 221.223 22.8533 222.545 21.936C223.868 20.9973 225.564 20.528 227.633 20.528H235.761V38H230.993V31.504H228.369L224.433 38ZM225.233 25.968C225.233 26.6933 225.521 27.2693 226.097 27.696C226.673 28.1013 227.42 28.304 228.337 28.304H230.993V23.888H227.729C226.876 23.888 226.247 24.1013 225.841 24.528C225.436 24.9333 225.233 25.4133 225.233 25.968Z" fill="#222222"/>
<line x1="76.2783" y1="52.3093" x2="161.722" y2="52.3093" stroke="#222222" stroke-width="2.28866"/>
</svg>
