<svg width="80" height="80" viewBox="0 0 80 80" fill="none" xmlns="http://www.w3.org/2000/svg">
<circle opacity="0.5" cx="40" cy="40" r="40" fill="#C8CADF" fill-opacity="0.784314"/>
<circle cx="40" cy="40" r="30" fill="#C8CADF" fill-opacity="0.784314"/>
<g clip-path="url(#clip0_1090_1301)">
<path d="M48.7091 43.584C48.0949 42.9445 47.3541 42.6026 46.569 42.6026C45.7902 42.6026 45.0431 42.9382 44.4036 43.5777L42.4027 45.5722C42.2381 45.4835 42.0735 45.4012 41.9152 45.3189C41.6873 45.2049 41.472 45.0973 41.2884 44.9833C39.4142 43.793 37.7109 42.2417 36.0774 40.2345C35.2859 39.2341 34.754 38.392 34.3678 37.5372C34.887 37.0624 35.3682 36.5685 35.8368 36.0936C36.0141 35.9163 36.1913 35.7327 36.3686 35.5554C37.6983 34.2258 37.6983 32.5035 36.3686 31.1739L34.6401 29.4453C34.4438 29.249 34.2412 29.0464 34.0512 28.8438C33.6713 28.4512 33.2724 28.046 32.8609 27.6661C32.2467 27.0583 31.5122 26.7354 30.7397 26.7354C29.9673 26.7354 29.2201 27.0583 28.587 27.6661C28.5806 27.6724 28.5806 27.6724 28.5743 27.6788L26.4215 29.8506C25.6111 30.661 25.1488 31.6488 25.0475 32.7948C24.8956 34.6437 25.4401 36.3659 25.858 37.4929C26.8837 40.2599 28.416 42.8242 30.7018 45.5722C33.475 48.8837 36.8118 51.4986 40.6235 53.3412C42.0798 54.0313 44.0237 54.8481 46.1954 54.9874C46.3284 54.9938 46.4677 55.0001 46.5943 55.0001C48.057 55.0001 49.2853 54.4746 50.2477 53.4298C50.2541 53.4172 50.2667 53.4108 50.2731 53.3982C50.6023 52.9993 50.9822 52.6384 51.3811 52.2521C51.6534 51.9925 51.932 51.7203 52.2042 51.4353C52.8311 50.7832 53.1603 50.0234 53.1603 49.2446C53.1603 48.4594 52.8247 47.706 52.1852 47.0728L48.7091 43.584ZM50.9759 50.2513C50.9695 50.2513 50.9695 50.2576 50.9759 50.2513C50.7289 50.5172 50.4757 50.7578 50.2034 51.0238C49.7918 51.4163 49.3739 51.8279 48.9814 52.2901C48.3419 52.9739 47.5884 53.2969 46.6007 53.2969C46.5057 53.2969 46.4044 53.2969 46.3094 53.2905C44.4289 53.1702 42.6813 52.4357 41.3707 51.8089C37.7869 50.074 34.6401 47.611 32.0251 44.4895C29.866 41.8871 28.4223 39.4811 27.4662 36.8977C26.8774 35.3211 26.6621 34.0928 26.7571 32.9341C26.8204 32.1933 27.1053 31.5791 27.6309 31.0536L29.79 28.8945C30.1002 28.6032 30.4295 28.4449 30.7524 28.4449C31.1513 28.4449 31.4742 28.6855 31.6768 28.8881C31.6832 28.8945 31.6895 28.9008 31.6958 28.9071C32.0821 29.268 32.4493 29.6416 32.8355 30.0405C33.0318 30.2431 33.2344 30.4457 33.437 30.6547L35.1656 32.3832C35.8368 33.0544 35.8368 33.6749 35.1656 34.3461C34.982 34.5297 34.8047 34.7133 34.6211 34.8906C34.0892 35.4351 33.5827 35.9417 33.0318 36.4355C33.0192 36.4482 33.0065 36.4545 33.0002 36.4672C32.4556 37.0117 32.5569 37.5436 32.6709 37.9045C32.6772 37.9235 32.6836 37.9425 32.6899 37.9615C33.1395 39.0505 33.7726 40.0763 34.735 41.2983L34.7414 41.3046C36.4889 43.4574 38.3315 45.1353 40.3639 46.4206C40.6235 46.5852 40.8895 46.7182 41.1427 46.8448C41.3707 46.9588 41.586 47.0665 41.7696 47.1804C41.7949 47.1931 41.8202 47.2121 41.8456 47.2248C42.0608 47.3324 42.2634 47.383 42.4724 47.383C42.9979 47.383 43.3272 47.0538 43.4348 46.9462L45.6003 44.7807C45.8155 44.5654 46.1574 44.3058 46.5563 44.3058C46.9489 44.3058 47.2718 44.5528 47.4681 44.768C47.4744 44.7744 47.4744 44.7744 47.4808 44.7807L50.9695 48.2695C51.6217 48.9153 51.6217 49.5801 50.9759 50.2513Z" fill="#1E1E1E" fill-opacity="0.792157"/>
<path d="M41.2124 32.1361C42.8713 32.4147 44.3782 33.1998 45.5813 34.4029C46.7843 35.6059 47.5631 37.1128 47.848 38.7717C47.9176 39.1896 48.2786 39.4809 48.6901 39.4809C48.7408 39.4809 48.7851 39.4746 48.8357 39.4682C49.3043 39.3922 49.6145 38.949 49.5386 38.4805C49.1967 36.4733 48.2469 34.6435 46.7969 33.1935C45.347 31.7435 43.5171 30.7938 41.51 30.4519C41.0414 30.3759 40.6045 30.6861 40.5222 31.1484C40.4399 31.6106 40.7438 32.0601 41.2124 32.1361Z" fill="#1E1E1E" fill-opacity="0.792157"/>
<path d="M54.9654 38.2336C54.4019 34.9285 52.8443 31.9209 50.4509 29.5275C48.0575 27.1342 45.05 25.5766 41.7448 25.013C41.2826 24.9307 40.8457 25.2473 40.7634 25.7095C40.6874 26.1781 40.9977 26.615 41.4662 26.6973C44.4168 27.1975 47.1078 28.5968 49.2479 30.7306C51.388 32.8707 52.781 35.5617 53.2812 38.5122C53.3508 38.9301 53.7117 39.2214 54.1233 39.2214C54.1739 39.2214 54.2183 39.215 54.2689 39.2087C54.7311 39.1391 55.0477 38.6958 54.9654 38.2336Z" fill="#1E1E1E" fill-opacity="0.792157"/>
</g>
<defs>
<clipPath id="clip0_1090_1301">
<rect width="30" height="30" fill="white" transform="translate(25 25)"/>
</clipPath>
</defs>
</svg>
