<svg width="14" height="13" viewBox="0 0 14 13" fill="none" xmlns="http://www.w3.org/2000/svg">
<g clip-path="url(#clip0_765_314)">
<path d="M13.4182 2.43827C12.9409 2.64767 12.4322 2.78648 11.9018 2.85387C12.4474 2.52813 12.8638 2.01625 13.0596 1.39926C12.5509 1.70254 11.9893 1.91676 11.3908 2.0363C10.9078 1.52201 10.2194 1.20349 9.4684 1.20349C8.01138 1.20349 6.83838 2.38612 6.83838 3.83592C6.83838 4.04452 6.85603 4.2451 6.89936 4.43605C4.71142 4.32935 2.77541 3.28071 1.47484 1.68328C1.24779 2.07722 1.1146 2.52813 1.1146 3.01353C1.1146 3.92497 1.58396 4.73291 2.28359 5.20067C1.86076 5.19265 1.44596 5.06989 1.09454 4.87653C1.09454 4.88455 1.09454 4.89498 1.09454 4.90541C1.09454 6.18432 2.00678 7.2466 3.20305 7.4913C2.98883 7.54987 2.75535 7.57796 2.51305 7.57796C2.34456 7.57796 2.17447 7.56833 2.01481 7.53303C2.3558 8.57524 3.3234 9.34146 4.47393 9.36633C3.57854 10.0668 2.44164 10.4888 1.21088 10.4888C0.995054 10.4888 0.788054 10.4792 0.581055 10.4527C1.74683 11.2045 3.12843 11.6337 4.61835 11.6337C9.46118 11.6337 12.1088 7.62208 12.1088 4.14481C12.1088 4.02847 12.1048 3.91615 12.0992 3.80463C12.6215 3.43395 13.0604 2.97101 13.4182 2.43827Z" fill="#402F2C"/>
</g>
<defs>
<clipPath id="clip0_765_314">
<rect width="12.8372" height="12.8372" fill="white" transform="translate(0.581055)"/>
</clipPath>
</defs>
</svg>
